# xmcd
#
# Track frame offsets:
#	150
#	30480
#	70252
#	97475
#	123652
#	147945
#	170500
#	188240
#	212912
#	237492
#	268877
#	289737
#
# Disc length: 4143 seconds
#
# Revision: 4
# Processed by: cddbd v1.5PL3 Copyright (c) Steve Scherf et al.
# Submitted via: CDex 1.50Beta5
#
DISCID=c5102d0c
DTITLE=Joe Chindamo Trio - The Joy Of Standards Vol.2
DYEAR=2002
DGENRE=Jazz
TTITLE0=Tricotism
TTITLE1=My Favourite Things
TTITLE2=Mr Bojangles
TTITLE3=Little Niles
TTITLE4=Paris In April
TTITLE5=Zingaro
TTITLE6=Sleepless Days
TTITLE7=April In Paris
TTITLE8=It Was A Very Good Year
TTITLE9=Three Views Of A Secret
TTITLE10=Monk Business
TTITLE11=Ballad Of The Sad Young Men
EXTD=
EXTT0=
EXTT1=
EXTT2=
EXTT3=
EXTT4=
EXTT5=
EXTT6=
EXTT7=
EXTT8=
EXTT9=
EXTT10=
EXTT11=
PLAYORDER=
